<svg t="1687954855465" class="icon" viewBox="0 0 1088 1024" version="1.1" xmlns="http://www.w3.org/2000/svg" p-id="928" width="200" height="200"><path d="M412.8 320a160 160 0 1 1 320 0 160 160 0 0 1-320 0z m160-224a224 224 0 0 0-83.392 432 416 416 0 0 0-320.96 404.992h75.776a340.224 340.224 0 0 1 461.376-317.952l4.224-11.008 18.56-48.832 4.224-10.944a416 416 0 0 0-68.608-19.648A224 224 0 0 0 572.736 96z m130.944 719.232A107.392 107.392 0 0 1 704 663.488a106.88 106.88 0 0 1 129.92-16.448 107.648 107.648 0 0 1 131.2 168.512l-1.536 1.536-108.416 108.8-20.352 20.48-0.192-0.256-0.256 0.192-20.352-20.48-108.416-108.672-1.92-1.92z m130.88 49.408l89.792-89.792a49.984 49.984 0 0 0-70.272-71.168l-20.672 20.096-19.456-19.968-0.128 0.128a49.024 49.024 0 0 0-69.12 0.256 49.792 49.792 0 0 0-0.32 70.272l90.176 90.176z" fill="#000000" fill-opacity=".9" p-id="929"></path></svg>